<?xml version="1.0" encoding="utf-8"?>
<!-- Generator: Adobe Illustrator 26.0.3, SVG Export Plug-In . SVG Version: 6.00 Build 0)  -->
<svg version="1.0" id="katman_1" xmlns="http://www.w3.org/2000/svg" xmlns:xlink="http://www.w3.org/1999/xlink" x="0px" y="0px"
	 viewBox="0 0 600 450" style="enable-background:new 0 0 600 450;" xml:space="preserve">
<style type="text/css">
	.st0{fill:#010202;}
</style>
<symbol  id="Icon--hand-clicking" viewBox="-10.3 -12.9 20.6 25.8">
	<path class="st0" d="M2.1,12.9c0.1-0.1,0.2-0.1,0.4,0C2.3,12.9,2.2,12.9,2.1,12.9z"/>
	<path class="st0" d="M3.1,12.9c0,0,0.1,0,0.1,0c0,0,0,0,0,0s0,0,0,0C3.1,12.9,3.1,12.9,3.1,12.9z"/>
	<path class="st0" d="M3.2,12.9C3.2,12.9,3.2,12.8,3.2,12.9C3.2,12.8,3.3,12.8,3.2,12.9C3.2,12.9,3.2,12.9,3.2,12.9z"/>
	<path class="st0" d="M0.5-6.4c0-0.8,0-1.6,0-2.4c0-1.3-0.6-2.3-1.8-2.9c-1.9-0.9-4.2,0.5-4.3,2.6c-0.1,0.9,0,1.8,0,2.7
		c-0.9-0.8-1.3-3-0.2-4.7c1.2-1.8,3.8-2.3,5.6-1C1.6-10.8,1.9-8.4,0.5-6.4L0.5-6.4z"/>
	<path class="st0" d="M10.3-0.1c0-1.6-1.9-2.6-3.3-1.8C6.7-1.8,6.7-1.8,6.7-2C6.6-3.1,5.5-4.1,4.4-4c-0.5,0-1,0.2-1.4,0.5
		C2.7-4.1,2.2-4.6,1.6-4.8C0.9-5,0.2-4.9-0.4-4.4c0-0.1,0-0.2,0-0.3c0-1.4,0-2.9,0-4.3c-0.1-1.6-1.8-2.5-3.2-1.8
		c-0.9,0.4-1.3,1.2-1.3,2.1c0,2.5,0,5,0,7.5c0,0.1,0,0.2,0,0.3C-5-1.1-5.1-1.2-5.2-1.3c-0.6-0.5-1.2-1-1.9-1.3
		C-7.5-2.8-7.9-3-8.3-3.1c-1.2-0.2-2.1,0.8-2,1.7c0,0.1,0,0.2,0,0.2c0,0.4,0.2,0.8,0.4,1.2c0.6,1.3,1.4,2.5,2.2,3.6
		c0.8,1.2,1.6,2.4,2.3,3.7c0.7,1.2,1.4,2.4,2.4,3.3c0.8,0.8,1.8,1.4,2.9,1.8c0.6,0.2,1.3,0.4,2,0.4c0,0,0.1,0,0.2,0
		c0.1,0,0.2,0,0.4,0c0.2,0,0.4,0,0.7,0c0,0,0.1,0,0.1,0c0,0,0.1,0,0.1,0c0,0,0.1,0,0.2,0c0.2-0.1,0.5-0.1,0.7-0.1
		c1.4-0.3,2.7-0.9,3.8-1.9c1.4-1.4,2.3-3,2.4-5C10.3,3.8,10.3,1.9,10.3-0.1L10.3-0.1z M7.8,9.5c-1,1.2-2.2,2-3.8,2.3
		c-2.6,0.5-4.9-0.2-6.7-2.2c-0.7-0.7-1.2-1.5-1.7-2.3c-1.2-2.1-2.6-4.2-3.9-6.3C-8.6,0.4-9-0.2-9.3-1c-0.1-0.4-0.2-0.7,0.1-1
		c0.3-0.3,0.7-0.3,1-0.1C-7.3-1.9-6.7-1.3-6-0.8C-5.4-0.3-4.7,0.3-4.1,1C-4.1,1-4,1.1-3.9,1.2c0-0.2,0-0.2,0-0.3c0-3.2,0-6.4,0-9.6
		c0-0.8,0.6-1.3,1.1-1.4c0.7-0.1,1.4,0.4,1.5,1.1c0,0.1,0,0.3,0,0.4c0,2.9,0,5.9,0,8.8c0,0.2,0.1,0.3,0.3,0.3c0.2,0,0.5,0.1,0.6,0
		c0.1-0.1,0-0.4,0-0.6c0-0.8,0-1.6,0-2.4c0-0.5,0.2-1,0.6-1.2C0.7-4,1.1-4.1,1.5-3.8C2-3.6,2.3-3.2,2.3-2.7c0,0.7,0,1.3,0,2
		c0,0.2,0,0.3,0.2,0.2c0.2,0,0.5,0.1,0.6,0c0.1-0.1,0-0.4,0-0.6c0-0.2,0-0.4,0-0.5c0-0.8,0.6-1.4,1.3-1.4c0.7,0,1.3,0.6,1.3,1.4
		c0,0.6,0,1.3,0,1.9c0,0.2,0,0.2,0.2,0.2c0,0,0,0,0,0c0.2,0,0.5,0.1,0.6,0c0.2-0.1,0-0.4,0.1-0.6c0.1-0.6,0.7-1.2,1.3-1.2
		c0.6,0,1.2,0.6,1.3,1.2c0,0.1,0,0.2,0,0.4c0,1.6,0,3.3,0,4.9C9.4,6.8,8.9,8.2,7.8,9.5L7.8,9.5z"/>
</symbol>
<use xlink:href="#Icon--hand-clicking"  width="20.6" height="25.8" x="-10.3" y="-12.9" transform="matrix(11.8964 0 0 11.8964 300 225)" style="overflow:visible;"/>
</svg>
