<svg id="visual" viewBox="0 0 675 900" width="675" height="900" xmlns="http://www.w3.org/2000/svg" xmlns:xlink="http://www.w3.org/1999/xlink" version="1.1"><g><g transform="translate(254 395)"><path d="M118.4 -38.7C134.7 11.4 116 72.7 74.5 102.9C33 133.1 -31.3 132.3 -74.1 101.4C-116.9 70.4 -138.3 9.3 -122.3 -40.4C-106.4 -90.1 -53.2 -128.4 -1 -128.1C51.1 -127.7 102.2 -88.8 118.4 -38.7Z" stroke="#FFF5F7" fill="none" stroke-width="16"></path></g><g transform="translate(654 269)"><path d="M103.7 -32.3C116.6 5.8 96.8 55.9 61.6 80.6C26.3 105.2 -24.5 104.4 -60.9 79.1C-97.4 53.7 -119.5 3.8 -107 -33.9C-94.4 -71.6 -47.2 -97.3 -0.9 -97C45.4 -96.7 90.9 -70.5 103.7 -32.3Z" stroke="#FFF5F7" fill="none" stroke-width="16"></path></g><g transform="translate(599 895)"><path d="M65.5 -22.3C75.3 8.7 66.9 44.6 42.8 63.2C18.6 81.8 -21.3 83 -45.4 64.9C-69.4 46.8 -77.7 9.5 -67.5 -22.2C-57.3 -53.9 -28.6 -79.9 -0.4 -79.7C27.9 -79.6 55.8 -53.4 65.5 -22.3Z" stroke="#FFF5F7" fill="none" stroke-width="16"></path></g><g transform="translate(45 13)"><path d="M117.8 -37.1C135.7 16.8 121.6 82.4 79.4 114.2C37.3 146 -33 144 -79.3 110.1C-125.6 76.2 -148 10.4 -130.8 -42.6C-113.6 -95.6 -56.8 -135.8 -3.4 -134.7C50 -133.6 99.9 -91.1 117.8 -37.1Z" stroke="#FFF5F7" fill="none" stroke-width="16"></path></g></g></svg>