<?xml version="1.0" standalone="no"?>
<svg viewBox="0 0 200 200" xmlns="http://www.w3.org/2000/svg">
  <path fill="#5B21B6" d="M27.9,-44.1C40.9,-35.1,59.3,-35.3,63,-28.4C66.7,-21.5,55.7,-7.5,54.7,8.7C53.6,25,62.6,43.5,59,55.4C55.4,67.4,39.1,72.7,23.6,74.5C8.1,76.3,-6.6,74.6,-14.8,65.4C-23,56.1,-24.5,39.3,-30.9,28.6C-37.3,17.9,-48.6,13.3,-56.1,4.1C-63.6,-5.1,-67.4,-18.8,-62.9,-28.8C-58.4,-38.8,-45.7,-45,-33.8,-54.5C-22,-64,-11,-76.6,-1.7,-73.9C7.5,-71.2,15,-53.1,27.9,-44.1Z" transform="translate(100 100)" />
</svg>
